<?xml version="1.0" encoding="utf-8"?>
<!-- Generator: Adobe Illustrator 21.0.2, SVG Export Plug-In . SVG Version: 6.00 Build 0)  -->
<svg version="1.1" id="Layer_2" xmlns="http://www.w3.org/2000/svg" xmlns:xlink="http://www.w3.org/1999/xlink" x="0px" y="0px"
	 viewBox="0 0 30 24" style="enable-background:new 0 0 30 24;" xml:space="preserve">
<g>
	<rect x="12" y="2" width="6" height="2"/>
	<polygon points="28,2 24,2 24,4 28,4 28,22 2,22 2,4 6,4 6,2 2,2 0,2 0,4 0,22 0,24 2,24 28,24 30,24 30,22 30,4 30,2 	"/>
	<rect x="8" width="2" height="4"/>
	<rect x="20" width="2" height="4"/>
	<path d="M10,6H4v6h6V6z M8,10H6V8h2V10z"/>
	<path d="M18,6h-6v6h6V6z M16,10h-2V8h2V10z"/>
	<path d="M4,20h6v-6H4V20z M6,16h2v2H6V16z"/>
	<path d="M18,14h-6v6h6V14z M16,18h-2v-2h2V18z"/>
	<path d="M26,6h-6v6h6V6z M24,10h-2V8h2V10z"/>
</g>
</svg>
