<?xml version="1.0" encoding="utf-8"?>
<!-- Generator: Adobe Illustrator 21.0.2, SVG Export Plug-In . SVG Version: 6.00 Build 0)  -->
<svg version="1.1" id="Layer_1" xmlns="http://www.w3.org/2000/svg" xmlns:xlink="http://www.w3.org/1999/xlink" x="0px" y="0px"
	 viewBox="0 0 44 22" style="enable-background:new 0 0 44 22;" xml:space="preserve">
<path d="M42,2v18H2V2H42 M44,0H0v22h44V0L44,0z"/>
<polygon points="6,4 4,4 4,9 6,9 6,4 "/>
<polygon points="9,4 4,4 4,6 9,6 9,4 "/>
<polygon points="9,16 4,16 4,18 9,18 9,16 "/>
<polygon points="6,13 4,13 4,18 6,18 6,13 "/>
<polygon points="40,13 38,13 38,18 40,18 40,13 "/>
<polygon points="40,16 35,16 35,18 40,18 40,16 "/>
<polygon points="40,4 35,4 35,6 40,6 40,4 "/>
<polygon points="40,4 38,4 38,9 40,9 40,4 "/>
<path d="M20.5,11.7h1.7c0.7,0,1.3,0.6,1.3,1.3c0,0.7-0.6,1.3-1.3,1.3h-3c-0.3,0-0.6,0.3-0.6,0.6s0.3,0.6,0.6,0.6h1.6v1.2
	c0,0.3,0.3,0.6,0.6,0.6c0.3,0,0.6-0.3,0.6-0.6v-1.2h0.2c1.4,0,2.5-1.1,2.5-2.5c0-1.4-1.1-2.5-2.5-2.5h-1.7c-0.7,0-1.3-0.6-1.3-1.3
	c0-0.7,0.6-1.3,1.3-1.3h3c0.3,0,0.6-0.3,0.6-0.6c0-0.3-0.3-0.6-0.6-0.6h-1.5V5.6c0-0.3-0.3-0.6-0.6-0.6s-0.6,0.3-0.6,0.6v1.2h-0.2
	c-1.4,0-2.5,1.1-2.5,2.5C18,10.6,19.1,11.7,20.5,11.7L20.5,11.7z M20.5,11.7"/>
</svg>
